<?xml version="1.0" encoding="utf-8"?>
<!-- Generator: Adobe Illustrator 23.0.1, SVG Export Plug-In . SVG Version: 6.00 Build 0)  -->
<svg version="1.1" id="Layer_1" xmlns="http://www.w3.org/2000/svg" xmlns:xlink="http://www.w3.org/1999/xlink" x="0px" y="0px"
	 viewBox="0 0 1587.2 1800" style="enable-background:new 0 0 1587.2 1800;" xml:space="preserve">
<style type="text/css">
	.st0{fill:#FFFFFF;}
</style>
<g id="Logo_artwork">
</g>
<g>
	<path class="st0" d="M968.5,668.7c0-65.9-53.3-119.2-119.2-119.2c-3.5,0-184.1,0-184.1,0v238.3c0,0,180.7,0,184.1,0
		C915.2,787.8,968.5,734.5,968.5,668.7z"/>
	<path class="st0" d="M881.8,982.8H665.2v260h216.6c71.9,0,130-58.1,130-130S953.7,982.8,881.8,982.8z"/>
	<path class="st0" d="M1358.4,116.2H231.9c-119.6,0-216.6,97-216.6,216.6v1126.5c0,119.7,97,216.6,216.6,216.6h1126.5
		c119.7,0,216.6-97,216.6-216.6V332.9C1575.1,213.2,1478.1,116.2,1358.4,116.2z M1134.8,1338.1c-62.8,50.7-155.1,77.1-277.7,78
		H405.2V376.2h405.1c129.6,0,205.8,32.9,273.4,81.9s101.4,120.5,101.4,213.6c0,53.7-12.1,99.7-36,137.8
		c-39.9,59.8-84.1,75.8-84.1,75.8c52.4,14.3,93.2,41.2,121.3,80.2s42,86.7,42,143C1228.4,1210.3,1197.2,1286.5,1134.8,1338.1z"/>
</g>
</svg>
