<?xml version="1.0" encoding="utf-8"?>
<!-- Generator: Adobe Illustrator 23.0.1, SVG Export Plug-In . SVG Version: 6.00 Build 0)  -->
<svg version="1.1" id="Layer_1" xmlns="http://www.w3.org/2000/svg" xmlns:xlink="http://www.w3.org/1999/xlink" x="0px" y="0px"
	 viewBox="0 0 1587.2 1800" style="enable-background:new 0 0 1587.2 1800;" xml:space="preserve">
<style type="text/css">
	.st0{fill:#FFFFFF;}
</style>
<g id="Logo_artwork">
</g>
<path class="st0" d="M0,0l144.4,1620.1L792.6,1800l649.9-180.2L1587.2,0H0z M1307.6,721.4l-5.4,59.4l-52,582.3l-3.3,37.4
	l-452.6,125.4l0,0l-1,0.3l-453.1-125.8l-31-347.3h222l15.7,176.4l246.3,66.5l0.2-0.1l0,0l246.7-66.6l25.7-286.8H794.2h-0.8H299.3
	l-19.8-221.2h514h0.8H1085l20.1-226.5H794.2h-0.8H259.8l-20.1-221.2h553.8h0.8h553.3L1307.6,721.4z"/>
</svg>
