<?xml version="1.0" encoding="utf-8"?>
<!-- Generator: Adobe Illustrator 23.0.1, SVG Export Plug-In . SVG Version: 6.00 Build 0)  -->
<svg version="1.1" id="Layer_1" xmlns="http://www.w3.org/2000/svg" xmlns:xlink="http://www.w3.org/1999/xlink" x="0px" y="0px"
	 viewBox="0 0 1587.2 1800" style="enable-background:new 0 0 1587.2 1800;" xml:space="preserve">
<style type="text/css">
	.st0{fill:#FFFFFF;}
</style>
<g id="Logo_artwork">
</g>
<path class="st0" d="M1525.8,803L888.3,165.4c-27-27.2-62.6-40.8-98.3-40.8s-71.2,13.6-98.3,40.8L565.6,291.5l156,156
	c51.8-30.5,119.4-23.9,163.8,20.6c44.4,44.4,50.9,112,20.4,163.7l153.4,153.4c51.8-30.5,119.4-23.9,163.8,20.6
	c52.8,52.8,52.8,138.2,0,191c-52.8,52.8-138.2,52.8-191,0c-44.4-44.4-51-112-20.6-163.8L858.2,679.5c-10.9,6.5-22.4,11.2-34.4,14.2
	v414.8c58.2,15,101.3,67.4,101.3,130.3c0,74.7-60.4,135.1-135.1,135.1s-135.1-60.4-135.1-135.1c0-62.9,43.1-115.3,101.3-130.3V693.8
	c-22.6-5.8-44.1-17-61.7-34.7c-44.4-44.4-50.9-112-20.4-163.7L517.9,339.2L54.2,803c-54.3,54.2-54.3,142.3,0,196.5l637.6,637.6
	c27,27.2,62.6,40.8,98.3,40.8s71.2-13.6,98.3-40.8L1526,999.5C1580.2,945.3,1580.2,857.2,1525.8,803z"/>
</svg>
