<?xml version="1.0" encoding="utf-8"?>
<!-- Generator: Adobe Illustrator 23.0.1, SVG Export Plug-In . SVG Version: 6.00 Build 0)  -->
<svg version="1.1" id="Layer_1" xmlns="http://www.w3.org/2000/svg" xmlns:xlink="http://www.w3.org/1999/xlink" x="0px" y="0px"
	 viewBox="0 0 1587.2 1800" style="enable-background:new 0 0 1587.2 1800;" xml:space="preserve">
<style type="text/css">
	.st0{fill:#FFFFFF;}
</style>
<g id="Logo_artwork">
</g>
<path class="st0" d="M545.5,1669.7c24.5-10.5,41.6-34.9,41.6-63.2v-185.8c0-6.8,0.6-13.8,1.4-21c-0.5,0.1-0.9,0.2-1.4,0.3
	c0,0-103.2,0-123.9,0c-51.6,0-96.4-20.6-117-61.9c-24.1-44.7-34.4-120.4-96.4-161.7c-10.3-6.9-3.4-17.2,17.2-17.2
	c20.6,3.4,65.4,31,92.9,68.8c31,37.9,61.9,68.8,117,68.8c85.6,0,131.4-4.3,159-19.1c32.1-47.8,76.6-84.1,123.1-84.1v-0.9
	c-195-6.3-319.6-71.1-377.7-171.2c-126.1,1.4-235.9,13.9-298.6,24.3c-2-11.3-3.7-22.6-5.2-34c61.8-10.2,166.7-22.3,287.2-24.6
	c-3.9-9.5-7.2-19.2-10-29.2c-120.8-6.1-225.1-1.3-281.7,3.3c-0.7-11.4-1.6-22.8-1.8-34.4c56.7-4.6,158.2-9.3,275.9-3.8
	c-2.7-17.2-4.5-34.8-4.5-53.1c0-58.5,20.6-120.4,58.5-172.1c-17.2-58.5-41.3-182.4,6.9-227.1c92.9,0,158.3,44.7,189.3,72.3
	c58.5-24.1,123.8-37.9,196.1-37.9S931,519,986.1,543.1c31-27.5,96.4-72.3,189.3-72.3c51.6,48.2,24.1,172.1,6.9,227.1
	c37.9,51.6,58.5,110.1,55.1,172.1c0,16.7-1.5,32.7-3.8,48.5c120.4-5.9,224.6-1.2,282.3,3.5c-0.1,11.6-1.1,22.9-1.8,34.4
	c-57.5-4.7-164.3-9.6-287.6-3.1c-3.1,11.6-6.8,22.8-11.2,33.7c122,1.6,229.3,13.4,294.1,23.7c-1.5,11.4-3.2,22.7-5.2,34
	c-65.8-10.5-177.9-22.8-305.5-23.5c-57.3,99-179.6,163.6-370.8,171.2v1.1c89.5,0,172.1,134.2,172.1,227.1v185.8
	c0,28.3,17.1,52.6,41.6,63.2C1356.8,1565.3,1585,1268,1585,918.2c0-436.4-355-791.5-791.5-791.5S2.1,481.9,2.1,918.3
	C2.1,1268.1,230.2,1565.4,545.5,1669.7z"/>
</svg>
