<?xml version="1.0" encoding="utf-8"?>
<!-- Generator: Adobe Illustrator 23.0.1, SVG Export Plug-In . SVG Version: 6.00 Build 0)  -->
<svg version="1.1" id="Layer_1" xmlns="http://www.w3.org/2000/svg" xmlns:xlink="http://www.w3.org/1999/xlink" x="0px" y="0px"
	 viewBox="0 0 1587.2 1800" style="enable-background:new 0 0 1587.2 1800;" xml:space="preserve">
<style type="text/css">
	.st0{fill:#FFFFFF;}
</style>
<g id="Logo_artwork">
</g>
<g>
	<path class="st0" d="M530.1,617c6.9-8.4,10.4-19.8,10.4-34.2c0-6.1-0.6-12.6-1.8-19.5s-4.1-13.8-8.7-20.5
		c-20.1-30.2-41.7-52.1-64.7-65.6c-23.1-13.5-47-20.2-71.7-20.2c-21.4,0-43.1,4.7-65,14s-43.5,22.3-65,38.8
		c-21.4,16.5-42.3,36.3-62.7,59.3s-39.6,48.2-57.6,75.5c-18.1,27.3-34.8,56.3-50.1,87.1c-15.3,30.7-28.8,62.2-40.5,94.3
		s-21.1,64.5-28.3,97c-7.4,32.3-11.8,64-13.4,94.9c-0.3,1.9-0.4,3.8-0.4,5.8v6.3c0,17.1,2.2,34.1,6.5,51.2s11,32.3,20,45.8
		s20.3,24.4,34,32.8c13.7,8.3,30.1,12.5,49.1,12.5c16.5,0,33.8-4,51.7-12.1c17.9-8,35.7-18.4,53.4-31.1c17.6-12.7,34.9-27,51.7-42.9
		c16.9-15.9,32.4-31.9,46.9-48c-4.9,15.1-10.4,32.3-16.5,51.4c-6.1,19.2-11.8,37.6-17.1,55.5s-9.8,33.9-13.6,48
		c-3.8,14.2-5.8,23.8-6.1,29c-0.3,2.5-0.4,4.9-0.4,7.2v6.7c0,15.4,2,26.1,5.9,31.8c3.9,5.8,10.3,8.7,18.9,8.7
		c5.1,0,10.2-1.8,15.1-5.5s9.4-8.4,13.4-14s7.6-11.6,10.6-17.8c3-6.3,5.2-12,6.5-17.1c0.6-1.6,2-6.7,4.5-15.4
		c2.4-8.7,5.5-19.5,9.2-32.3s7.8-27.3,12.4-43.2c4.6-15.9,9.4-32.2,14.5-48.8c5-16.5,9.9-32.8,14.6-48.7
		c4.7-15.9,9.2-30.3,13.2-43.2c4.1-12.8,7.5-23.5,10.4-32.1c2.9-8.5,4.8-13.6,5.9-15.2l0,0c4.9-14.2,9.9-27.8,15-40.7
		c5.2-13,9.8-26,14-38.8s7.7-26,10.4-39.6c2.7-13.5,4.1-28,4.1-43.4c0-5.8-0.9-10.9-2.6-15.2c-1.8-4.3-4.1-7.9-7.1-10.6
		c-3-2.8-6.4-4.8-10.2-6.1c-3.8-1.3-7.6-1.9-11.4-1.9c-7.9,0-15.5,2.6-23,7.7c-7.4,5.2-13.5,13.9-18.1,26.1l-38,113.3
		c-4.6,9.7-11.5,21-20.7,34s-19.8,26.6-31.7,40.8c-11.9,14.1-24.8,28.1-38.7,42c-13.9,13.8-27.6,26.2-41.4,37.2
		c-13.7,11-26.9,19.8-39.7,26.5s-24.2,10.1-34.2,10.1c-9,0-16.4-2.5-22.2-7.5c-5.9-4.9-10.5-11.3-13.9-19s-5.7-16.4-6.9-25.8
		c-1.2-9.5-1.8-18.7-1.8-27.7c0-27,4.4-57.5,13.2-91.5S141,844.6,156,809.7c14.9-34.9,32.1-69,51.5-102.3s39.7-62.9,60.9-88.8
		c21.2-25.9,42.6-46.7,64.1-62.5c21.6-15.8,41.9-23.7,60.9-23.7c12.2,0,23.6,3.4,34,10.4s20,18.1,28.7,33.6
		c9.2,17.1,17.6,30.2,25,39.3c7.4,9.2,15.5,13.8,24.2,13.8C514.9,629.5,523.1,625.4,530.1,617z"/>
	<path class="st0" d="M1562.1,925.5c-3-5.3-7.5-7.9-13.4-7.9c-3,0-6.1,0.8-9.4,2.4c-3.2,1.6-6.8,3.7-10.6,6.3l0,0
		c-36.4,32.5-67,59.4-91.9,80.8c-24.9,21.4-45.4,38.4-61.5,51.2c-16.1,12.7-28.7,21.6-37.7,26.8c-9,5.1-15.8,7.7-20.4,7.7
		c-5.7,0-9.8-1.2-12.2-3.6s-3.7-5.5-3.7-9.4c0.3-2.9,3.9-8.4,10.8-16.6s15.5-18.2,25.6-29.9c10.2-11.7,21.1-24.8,32.8-39.1
		c11.6-14.3,22.5-29,32.6-44.1c10-15.1,18.4-30.1,25-45.1c6.7-15,10-29,10-42.2c0-10-2.2-18.7-6.5-26.3c-4.3-7.5-10-13.8-16.9-18.8
		s-14.8-8.7-23.6-11.3c-8.8-2.6-17.7-3.9-26.7-3.9c-13,0-26.1,2.7-39.1,8.2s-25.8,12.6-38.3,21.3s-24.6,18.4-36.3,29.2
		c-11.7,10.8-22.6,21.6-32.6,32.6c0.8-1.9,1.7-5,2.6-9.2s1.8-8.6,2.6-13.3c0.8-4.7,1.5-9.1,2-13.3c0.6-4.2,0.8-7.2,0.8-9.2
		c0-9.7-2.4-17-7.3-22s-12.8-7.5-23.6-7.5c-7,0-13.6,3.7-19.7,11.3c-6.1,7.5-11.6,16.5-16.5,26.8s-9.2,20.7-13,31.4
		s-6.8,18.9-9,24.6c-3.7,13.1-7.8,26.4-12.4,40.1c-2.4,1-4.5,2.4-6.3,4.3c-7.6,7.7-16.2,16.1-25.9,25.3
		c-9.7,9.2-19.8,18.3-30.4,27.5s-21.3,18-32,26.5c-10.7,8.5-21,16.1-31,22.7c-9.9,6.6-19.1,11.9-27.7,15.9
		c-8.6,4.1-15.7,6.1-21.4,6.1c-4.6,0-7.8-1.4-9.4-4.3s-2.4-6.8-2.4-11.6c0-7.7,1.4-16.5,4.3-26.3c2.9-9.8,5.8-18.4,8.8-25.8l0,0
		c6.7-17.4,14.8-37.9,24.3-61.6c9.4-23.6,19.4-48.6,30.1-75c10.7-26.4,21.7-53.5,33-81.3s22.3-54.6,33-80.3s20.7-49.5,30.1-71.4
		c9.3-21.9,17.4-40.3,24.2-55.5c3.5-7.4,6.4-14.3,8.7-20.7c2.3-6.4,3.5-12.6,3.5-18.3c0-12.2-3.5-21.1-10.4-26.5
		c-6.9-5.5-14.6-8.2-23-8.2s-16.8,2.6-25,7.7c-8.3,5.1-14.9,14-19.8,26.5l-123,311c-8.2,20.6-17.1,43.3-26.9,68
		c-9.8,24.8-19.4,49.7-28.9,74.8c-5.3,13.3-9.8,27.9-13.6,43.8c-3.4,2.8-6.8,5.5-10.2,8.1c-13.7,10.4-26.8,18.6-39.3,24.4
		s-23,8.7-31.4,8.7c-12,0-17.9-5.8-17.9-17.4c0-12.5,1.8-26.1,5.5-40.8c3.7-14.6,8.3-29.6,13.9-44.9c5.5-15.3,11.6-30.3,18.1-45.1
		s12.6-28.7,18.1-41.7c5.6-13,10.2-24.6,13.9-34.8c3.7-10.1,5.5-18.1,5.5-23.9c0-10.3-2.9-19.1-8.5-26.5
		c-5.7-7.4-13.4-11.1-23.2-11.1c-9,0-16.5,3.6-22.4,10.6c-6,7.1-11.3,15.9-15.9,26.5c-4.6,10.6-8.9,22.2-12.8,34.8
		c-3.9,12.5-8.5,24.3-13.6,35.2c-7.3,16.4-16.5,34.5-27.5,54.3s-23.3,38.3-36.9,55.5c-13.6,17.2-28.4,31.6-44.4,43.2
		s-32.9,17.4-50.5,17.4c-6.2,0-10.7-2.4-13.4-7.3s-4.1-10.2-4.1-15.9c0.6-13.8,2.9-28.1,6.9-42.7c4.1-14.6,9-29,14.6-43.2
		c5.7-14.1,11.9-27.8,18.5-41c6.7-13.2,13-25.5,18.9-36.9c6-11.4,11.2-21.5,15.7-30.4s7.4-16,8.8-21.5c0.8-2.9,1.2-5.9,1.2-9.2
		c0-4.9-1.1-9.1-3.3-12.8s-5-6.7-8.5-9.2c-3.6-2.4-7.3-4.2-11.4-5.3c-4.1-1.1-8-1.7-11.8-1.7c-8.7,0-16.7,2.6-24.2,7.9
		c-7.4,5.3-14,14.1-19.7,26.3c-22.2,46.4-39.5,85.7-51.7,118.2s-21.3,58.9-27.1,79.3c-5.9,20.4-9.3,35.4-10.4,44.9
		s-1.6,14.4-1.6,14.7c0,13.8,1.9,25.3,5.7,34.5c3.8,9.2,8.8,16.5,15.1,22c6.2,5.5,13.5,9.3,21.8,11.6c8.3,2.3,16.9,3.4,25.9,3.4
		c19.8,0,38.2-3.3,55-9.9s32-15.2,45.6-25.8s25.7-22.4,36.3-35.2c10.6-12.8,19.4-25.6,26.5-38.1c-4.3,19.6-6.5,36.8-6.5,51.6
		c0,20.9,4.1,35.7,12.2,44.4c8.2,8.7,18.8,13,31.8,13s27.7-3.6,44-10.9s32.9-16.8,49.7-28.7c4.8-3.4,9.6-6.9,14.3-10.6
		c0.4,2.9,1,5.8,1.6,8.7c1.9,8.4,5.1,15.6,9.6,21.7s10.4,10.9,17.9,14.5s16.8,5.3,27.9,5.3c16.3,0,33.1-3.8,50.3-11.6
		c17.2-7.8,34.6-18.1,52.1-31.1s35.1-28.1,52.7-45.1c0.9-0.9,1.8-1.8,2.7-2.7c-2.8,6.6-5.7,13.2-8.6,19.8
		c-14,31.7-28.6,63.7-43.8,96c-15.2,32.3-30.2,64.6-44.8,96.7c-2.2,5.8-4.5,11.8-7.1,18.1c-2.6,6.2-5.1,12.7-7.5,19.3
		c-2.4,6.6-4.5,13.3-6.1,20s-2.4,13.4-2.4,19.8c0,13.2,3.2,22.1,9.6,26.8c6.4,4.6,14.5,7,24.3,7c7.6,0,14.5-1.7,20.6-5
		c6.1-3.4,11.6-7.9,16.3-13.5c4.8-5.6,9-12.2,12.6-19.5c3.7-7.4,6.8-15.3,9.6-23.7c0.8-2.9,2.7-8.4,5.7-16.4s6.5-17.3,10.4-28
		c3.9-10.6,8.1-21.9,12.6-33.8c4.4-11.9,8.7-23.2,12.8-34c4.1-10.8,7.7-20.2,10.8-28.2s5.4-13.5,6.7-16.4c1.1-2.3,2.9-6.3,5.5-12.3
		s5.5-12.7,8.8-20.3c3.2-7.5,6.8-15.6,10.8-24.1s7.7-16.8,11.2-24.8s6.7-15.3,9.8-21.7c3-6.4,5.3-11.4,6.9-15
		c5.4-11.3,12-23.6,19.7-36.9c7.7-13.4,16.3-26.6,25.6-39.8c9.4-13.2,19.4-25.9,30.1-38.1c10.7-12.2,21.7-23.1,33-32.6
		c11.2-9.5,22.6-17,34.2-22.6s22.7-8.5,33.6-8.5c6.2,0,10.7,1.1,13.4,3.4c2.7,2.2,4.1,5.3,4.1,9.2c0,6.5-3.3,14.8-9.8,25.1
		s-14.7,21.6-24.6,34s-20.7,25.5-32.4,39.3c-11.7,13.8-22.7,27.5-33,41c-10.3,13.5-19.1,26.6-26.5,39.1
		c-7.3,12.5-11.6,23.6-12.6,33.3c-0.3,1.6-0.4,3-0.4,4.1v3.6c0,15.8,5.6,28.1,16.9,37.2c11.3,9,27.2,13.5,47.9,13.5
		c22,0,42.7-4.2,61.9-12.5c19.3-8.4,39-20.1,59.2-35.4s41.7-33.6,64.6-54.8c22.8-21.2,48.7-44.7,77.8-70.4
		c7.3-5.8,12.8-13,16.5-21.7s5.5-17.2,5.5-25.6C1566.6,937.4,1565.1,930.8,1562.1,925.5z"/>
</g>
</svg>
