<?xml version="1.0" encoding="utf-8"?>
<!-- Generator: Adobe Illustrator 23.0.1, SVG Export Plug-In . SVG Version: 6.00 Build 0)  -->
<svg version="1.1" id="Layer_1" xmlns="http://www.w3.org/2000/svg" xmlns:xlink="http://www.w3.org/1999/xlink" x="0px" y="0px"
	 viewBox="0 0 1587.2 1800" style="enable-background:new 0 0 1587.2 1800;" xml:space="preserve">
<style type="text/css">
	.st0{fill:#FFFFFF;}
</style>
<g id="Logo_artwork">
</g>
<path class="st0" d="M0,0l144.4,1620.1L792.6,1800l649.9-180.2L1587.2,0H0z M1285.9,384.5l-9.1,100.7l-4,44.7h-0.6H793.6h-0.7H512.5
	l18.2,203.5h262.2h0.7h407.6h53.5l-4.8,53.4l-46.7,523.1l-3,33.6L793.6,1456l0,0l-0.9,0.3l-407-113l-27.8-312h91.9h107.5l14.1,158.5
	l221.3,59.8h0.2l0,0l221.6-59.8l23.1-257.7h-244h-0.7h-444l-48.8-547.6l-4.8-53.3h497.5h0.7h497L1285.9,384.5z"/>
</svg>
