<?xml version="1.0" encoding="utf-8"?>
<!-- Generator: Adobe Illustrator 23.0.1, SVG Export Plug-In . SVG Version: 6.00 Build 0)  -->
<svg version="1.1" id="Layer_1" xmlns="http://www.w3.org/2000/svg" xmlns:xlink="http://www.w3.org/1999/xlink" x="0px" y="0px"
	 viewBox="0 0 1587.2 1800" style="enable-background:new 0 0 1587.2 1800;" xml:space="preserve">
<style type="text/css">
	.st0{fill:#FFFFFF;}
</style>
<g id="Logo_artwork">
</g>
<path class="st0" d="M66.9,194.9h1453.5V1609H66.9V194.9z M0.8,1675.1h1585.9V128.8H0.8V1675.1z M1039.6,680.1
	c0-5.4,1.9-7.9,7.9-7.9h103.8c5.4,0,7.9,1.9,7.9,7.9v521.4c0,5.4-1.3,7.9-7.9,7.9h-102.6c-6.7,0-8.6-3.2-8.6-8.6V680.1H1039.6
	L1039.6,680.1z M1032.3,529.9c0-42.2,29.9-67.3,67.3-67.3c40.3,0,67.3,27,67.3,67.3c0,43.5-28.3,67.3-68.6,67.3
	C1060.2,597.5,1032.3,573.7,1032.3,529.9z M735,897.3c-18.4-73.4-62.2-233.1-78.8-310.6H655c-14,77.2-48.9,208-76.5,310.6H735
	L735,897.3z M551.5,1004.4l-52.1,198.2c-1.3,5.4-3.2,6.7-9.8,6.7h-97.2c-6.7,0-7.9-1.9-6.7-9.8l187.7-656.7
	c3.2-11.8,5.4-22.5,6.7-54.9c0-4.8,1.9-6.7,5.4-6.7h138.8c4.8,0,6.7,1.3,7.9,6.7l210.2,712.9c1.3,5.4,0,8.6-5.4,8.6H827.5
	c-5.4,0-8.6-1.3-9.8-6l-54.3-198.8L551.5,1004.4L551.5,1004.4z"/>
</svg>
