<?xml version="1.0" encoding="utf-8"?>
<!-- Generator: Adobe Illustrator 23.0.1, SVG Export Plug-In . SVG Version: 6.00 Build 0)  -->
<svg version="1.1" id="Layer_1" xmlns="http://www.w3.org/2000/svg" xmlns:xlink="http://www.w3.org/1999/xlink" x="0px" y="0px"
	 viewBox="0 0 1587.2 1800" style="enable-background:new 0 0 1587.2 1800;" xml:space="preserve">
<style type="text/css">
	.st0{fill:#FFFFFF;}
</style>
<g id="Logo_artwork">
</g>
<path class="st0" d="M94.4,133.8c-40.4,0-73.5,33.1-73.5,73.5v1395.9c0,40.4,33.1,73.5,73.5,73.5h1395.9c40.4,0,73.5-33.1,73.5-73.5
	v-1396c0-40.4-33.1-73.5-73.5-73.5H94.4V133.8z M606.1,501.1H706l176.3,808.2h-89.6l-51.1-236.2H565.3l-52.2,236.2H425L606.1,501.1z
	 M1076.3,501.1c34.2,0,55.8,23.2,55.8,57.3c0,34.5-21.7,57.7-55.8,57.7h-1.1c-30.1,0-53.2-23.2-53.2-57.7
	C1021.9,524.3,1046.2,501.1,1076.3,501.1z M653.9,590.7c-9.6,59.9-21.3,128.2-33.1,182.2l-40.4,205.7h150.2l-41.5-206.9
	c-11.8-56.6-22.4-122.3-31.9-181.1L653.9,590.7L653.9,590.7z M1031.1,684.8h91.8v624.5h-91.8V684.8z"/>
</svg>
