<?xml version="1.0" encoding="utf-8"?>
<!-- Generator: Adobe Illustrator 23.0.1, SVG Export Plug-In . SVG Version: 6.00 Build 0)  -->
<svg version="1.1" id="Layer_1" xmlns="http://www.w3.org/2000/svg" xmlns:xlink="http://www.w3.org/1999/xlink" x="0px" y="0px"
	 viewBox="0 0 1587.2 1800" style="enable-background:new 0 0 1587.2 1800;" xml:space="preserve">
<style type="text/css">
	.st0{fill:#FFFFFF;}
</style>
<g id="Logo_artwork">
</g>
<path class="st0" d="M1573.5,17.6c-7.3-8-17.6-12.5-28.4-12.5H42.4C31.6,5.1,21.3,9.6,14,17.6S3.2,36.2,4.1,46.9l135.4,1516.3
	c1.4,15.8,12.5,29.2,27.8,33.6L783,1772.7c3.4,1,7,1.5,10.5,1.5s7.1-0.5,10.5-1.5l616.3-175.9c15.3-4.4,26.3-17.7,27.8-33.6
	L1583.4,46.9C1584.3,36.2,1580.7,25.5,1573.5,17.6z M293.8,1043.6l269.2,74.7V351.2h153.8v999.9l-423-117.3V1043.6z M1295.8,774.2
	l-40.5,471.1l-384.6,105.8v-176.9l259.6-71.3l9.6-144.2L870.7,1005V351.2h461.5L1318.9,505h-294.4v307.7L1295.8,774.2z"/>
</svg>
