<?xml version="1.0" encoding="utf-8"?>
<!-- Generator: Adobe Illustrator 23.0.1, SVG Export Plug-In . SVG Version: 6.00 Build 0)  -->
<svg version="1.1" id="Layer_1" xmlns="http://www.w3.org/2000/svg" xmlns:xlink="http://www.w3.org/1999/xlink" x="0px" y="0px"
	 viewBox="0 0 1587.2 1800" style="enable-background:new 0 0 1587.2 1800;" xml:space="preserve">
<style type="text/css">
	.st0{fill:#FFFFFF;}
</style>
<g id="Logo_artwork">
</g>
<path class="st0" d="M963.6,94.4c-3.8,0.6-7.6,1.7-11.3,3.4c-31,15.3-66.1,60.9-72.9,69.9c-0.4,0.6-0.8,1.1-1.1,1.7
	c-34.8,52.1-53.3,113-54,176.5c-0.4,47.6,8.9,94.7,27.7,140.1c43.9,105.4,135.1,192.6,243.6,233.4c3.7,1.3,7.2,2.5,13.5,4.8
	c0.6,0.3,5.9,2,6.8,2.1l3.9,1.4c5.6,1.8,11.4,3.7,17,4.8c28.6,5.8,56.4,9,82.6,9.8c4.5,0,9,0.1,13.5,0.1
	c197.4,0,274-139.3,299.4-185.7c2.5-4.5,4.4-8.2,6.1-10.4c0-0.1,0-0.1,0.1-0.3c11.1-16.5,6.9-38.8-9.6-50.1
	c-16.3-11.1-38.7-6.9-50,9.6h-0.1c-52.6,77.5-142.7,101-267.5,70.1c-9.3-2.3-19.4-5.8-28.4-9.1c-11.8-4.2-23.6-9.1-34.6-14.5
	c-21.8-10.8-42.4-23.8-60.9-38.1C977.7,428.7,934.8,251.6,999,149.3c8.6-13.6,7-31.4-3.8-43.3C987,96.9,975.2,92.8,963.6,94.4z
	 M644.5,166.2c-8.2-0.1-16.5,2.5-23.2,8.2c-54.5,44.3-110.2,116.9-112.6,119.9c-0.3,0.6-0.6,1-1,1.5
	c-98.5,143.4-106,347.4-18.9,519.8c13.6,27.3,29.1,53.3,45.6,77.3l4.9,7c13.9,20.4,29.5,43.5,49.5,61.5c6.9,7.9,14.4,15.5,21.7,22.8
	l3.5,3.7l3,3c7.5,7.2,15.1,14.5,22.9,21.5h0.1c0.6,0.8,1.4,1.4,2.1,2.1c8.9,7.9,17.9,15.3,29.8,24.8l3.2,2.4
	c9.3,7.5,18.7,14.5,28.4,21.4c1,0.7,2,1.4,3,2.1c3.4,2.3,6.8,4.4,10.1,6.8l3.4,2.3l3.9,2.5c7.2,4.8,14.2,9.1,24.2,14.9
	c6.5,3.9,13.4,7.9,17.9,10.1c2,1.1,4.1,2.3,9,4.9l11,5.8c0.6,0.3,3.1,1.4,3.7,1.7c7.2,3.7,14.6,7.2,22.1,10.6l11.4,5.1
	c7.5,3.2,15.1,6.3,24.3,9.8l4.2,1.5c0.3,0.3,3.8,1.5,4.1,1.7c6.8,2.4,13.6,4.8,20.5,7l15.8,5.2c7.9,2.7,17,5.8,27,7.5
	c49.1,8.2,96.8,12.4,142,12.4c5.3,0,10.7-0.1,15.9-0.1c397.7-8.7,501.1-346.6,502.1-350c4.9-17-3.1-35.2-19.1-42.8
	s-35.2-2.3-45.2,12.4c-100.7,147.2-291.3,209.4-485.3,158.2c-9-2.3-17.7-4.8-28.6-8.3c-1.8-0.6-3.4-1.1-6.3-2.3
	c-6.3-2-12.5-4.1-19.6-6.8l-10-3.8c-5.8-2.3-11.5-4.5-18.6-7.6l-4.6-2.1c-8.6-3.7-16.9-7.7-24.3-11.4L897,899.7
	c-4.6-2.3-8.7-4.8-15.1-8.6l-3.5-2l-3.5-2.1c-5.2-3.1-10.4-6.3-15.2-9.7l-3.4-2.1c-0.3-0.1-3.1-2.1-3.4-2.4
	c-4.2-2.7-8.3-5.3-12.2-7.9c-8.7-6.2-17.3-12.7-27.3-20.5l-3.9-3.2C716.7,766.9,648,667.8,615.8,561.6
	c-30-97.5-7.7-225.1,59.5-341.4c8.7-15.1,5.5-34.2-7.9-45.5C660.8,169.1,652.7,166.2,644.5,166.2z M248.1,274.2
	c-8.6,0-17.3,3.1-24.2,9.3c-68.8,61.8-120.3,141.8-125.9,151c-147.2,214.3-118.8,547.4-17.7,751c2,4.2,4.1,8.3,6.2,12.4l1.4,2.3
	c1.8,4.1,3.9,8.3,4.6,9.1c1.1,2.7,2.8,5.6,3.5,6.5c1.7,3.5,3.4,6.6,6.5,12l11.5,19.8c1.7,2.7,3.4,5.5,3.9,6.5
	c2.3,3.7,4.6,7.5,7,11.3l5.6,9c1.7,2.7,3.4,5.1,4.5,6.5c5.6,8.7,11.3,17.4,17.4,25.8c0.3,0.4,0.6,0.7,0.8,1l2.3,3.1
	c5.1,7.3,10.3,14.4,14.9,20.1l20.5,26c0.3,0.3,2.5,3,2.7,3.2l3,3.4c6.2,7.6,12.8,15.2,19.4,22.5c1,1.1,2,2.1,3,3.2
	c6.3,6.9,12.8,13.8,19.6,21l6.5,6.2c5.3,5.6,10.7,11.1,16.3,16.3c0,0.1,2.7,2.7,2.7,2.7l5.6,5.2c6.8,6.5,13.8,12.9,19.1,17.4
	c0.3,0.4,5.3,4.8,5.8,5.1c6.6,5.9,13.2,11.5,20,17l34.5,27.3c5.8,4.2,11.7,8.4,18.4,13.4c2.3,1.7,4.6,3.4,7,4.9
	c1,0.8,2.1,1.7,2.8,2.1l25.9,17.3c9.4,6.2,18.9,12,30.4,18.9l6.2,3.5c7.2,4.2,14.5,8.4,21.4,12.1c4.1,2.3,8.2,4.2,11.7,6.1
	c4.9,2.7,10.3,5.6,18.4,9.6c0.7,0.4,6.5,3.2,7.2,3.5c8.2,4.1,16.5,7.9,26.9,12.5c0,0.1,3.4,1.7,3.4,1.7c9.6,4.1,18.9,8,31.1,12.9
	c2,0.8,3.9,1.5,4.4,1.7c8.7,3.4,17.9,6.8,25.3,9.4c0.7,0.3,4.5,1.8,5.2,2.1c10,3.4,19.8,6.6,32.5,10.6c2.1,0.7,4.4,1.4,4.6,1.4
	l7.2,2.3c8.7,2.7,17.4,5.5,26.9,7.3c67,12.2,132.4,18.6,194.3,18.6h0.1c516,0,680.3-415.2,682-419.5c6.3-16.7-0.6-35.6-16.3-44.3
	c-15.5-8.6-35.2-4.5-46.2,9.7c-132.4,174.3-382.2,239.1-668.1,173.4c-6.9-1.7-13.9-3.7-20.8-5.8l-13.5-4.1c-9.1-2.8-18.3-5.9-27.2-9
	c-0.1,0-4.2-1.5-4.2-1.5c-7.9-2.7-15.8-5.8-22.7-8.4l-7.9-3.1c-8.7-3.5-17.4-7.2-25.9-11l-4.9-2.1c-7.6-3.5-14.9-6.9-22.2-10.6
	c-0.6-0.3-6.3-3.1-6.9-3.2c-5.1-2.5-10.1-5.2-16.6-8.7l-29.4-15.8c-3-2-6.1-3.8-9-5.3c-8.9-5.5-18-11-27-16.7
	c-2.1-1.3-3.9-2.7-7.5-5.1c-6.2-3.9-12.2-8-21.1-14.2l-3.5-2.5c-6.1-4.2-12-8.7-16.9-12.4c-3.1-2.3-6.2-4.8-11.3-8.6
	c-4.5-3.5-9-6.9-13.2-10.3l-7.9-6.5c-6.6-5.3-12.8-11-19.3-16.5c-0.8-0.8-1.5-1.4-2.5-2.1c-7.2-6.6-14.5-13.2-23.2-21.5l-25.5-25.3
	c-6.2-6.3-12.4-12.8-19.4-20.5c-6.5-7.2-12.7-14.4-21-24.2l-15.2-18.6c-1.8-2.7-3.8-5.3-6.2-8.2c-5.2-7-10.4-13.9-15.6-21.2
	c-139.9-193.4-176.5-596.4-67.3-744c11-14.8,9-35.6-4.8-48.1C265.4,277.3,256.7,274.2,248.1,274.2z"/>
</svg>
