<?xml version="1.0" encoding="utf-8"?>
<!-- Generator: Adobe Illustrator 23.0.1, SVG Export Plug-In . SVG Version: 6.00 Build 0)  -->
<svg version="1.1" id="Layer_1" xmlns="http://www.w3.org/2000/svg" xmlns:xlink="http://www.w3.org/1999/xlink" x="0px" y="0px"
	 viewBox="0 0 1587.2 1800" style="enable-background:new 0 0 1587.2 1800;" xml:space="preserve">
<style type="text/css">
	.st0{fill:#FFFFFF;}
</style>
<g id="Logo_artwork">
</g>
<path class="st0" d="M96.7,138.1c-40.4,0-73.5,33.1-73.5,73.5v1395.9c0,40.4,33.1,73.5,73.5,73.5h1395.9c40.4,0,73.5-33.1,73.5-73.5
	V211.6c0-40.4-33.1-73.5-73.5-73.5H96.7z M558.8,505.4c73.1,0,135.2,17.6,176.7,57.7c37.5,37.5,57.3,95.2,57.3,164.6
	c0,72.7-17.6,122-48.1,162c-42.2,58.8-116.4,88.1-187,88.1c-15.1,0-26.8,0-40-1.1v336.9h-90.4V520.9
	C463.7,511.3,505.9,505.4,558.8,505.4z M573.5,565.7c-21.3,0-39,2.2-50.7,5.9v316.3c10.7,1.1,21.3,2.2,36.4,2.2
	c88.2,0,148-58.8,148-170.5C707.2,638.4,674.5,565.7,573.5,565.7z M1041.2,725.9c46.7,0,80.4,14.4,105,29.4l-24.6,68.7
	c-23.1-15.4-47.4-26-79-26c-50,0-75.7,35.2-75.7,73s14.7,60.2,73.1,98.1c68.3,42.6,122,95.5,122,174.5
	c0,114.6-80.4,170.1-178.2,170.1c-42.6,0-90-12.9-115.7-33.1l23.2-68.3c20.9,12.9,57.3,29.3,95.1,29.3c52.5,0,86.7-32,86.7-82.7
	c0-43.7-15.8-74.2-75.7-112c-76.8-48.5-118.2-98.1-118.2-162.7C879.2,790.9,949.7,725.9,1041.2,725.9z"/>
</svg>
