<?xml version="1.0" encoding="utf-8"?>
<!-- Generator: Adobe Illustrator 23.0.1, SVG Export Plug-In . SVG Version: 6.00 Build 0)  -->
<svg version="1.1" id="Layer_1" xmlns="http://www.w3.org/2000/svg" xmlns:xlink="http://www.w3.org/1999/xlink" x="0px" y="0px"
	 viewBox="0 0 1587.2 1800" style="enable-background:new 0 0 1587.2 1800;" xml:space="preserve">
<style type="text/css">
	.st0{fill:#FFFFFF;}
</style>
<g id="Logo_artwork">
</g>
<path class="st0" d="M66.4,188.6h1454.8v1415H66.4V188.6z M0.3,1669.8H1587V122.5H0.3V1669.8z M1070.3,757.5
	c-52.1,0-70,26.4-70,48.3c0,23.8,11.8,40.4,82,76.6c103.7,50.2,136.1,98.6,136.1,169.2c0,105.9-80.8,162.8-189.8,162.8
	c-57.6,0-107.2-11.8-135.5-28.3c-4.8-1.9-5.4-5.4-5.4-10.5V1078c0-6.7,3.2-8.6,7.9-5.4c41.7,27,89.4,39.1,132.9,39.1
	c52.1,0,74.1-21.9,74.1-51.5c0-23.8-15.3-44.8-82-79.5c-93.8-44.8-132.9-90.3-132.9-166.6c0-85.2,66.8-156.1,182.5-156.1
	c56.9,0,96.7,8.6,118.3,18.4c5.4,3.2,6.7,8.6,6.7,13.4v90.6c0,5.4-3.2,8.6-9.9,6.7C1156.1,768.6,1113.2,757.5,1070.3,757.5
	L1070.3,757.5z M501.7,836c15.3,1.3,27,1.3,53.4,1.3c77.3,0,150.1-27,150.1-132.3c0-83.9-52.1-126.2-140.2-126.2
	c-26.4,0-51.5,1.3-63.6,1.9L501.7,836L501.7,836z M383.7,485c0-4.8,9.2-7.9,14.6-7.9c42.3-1.9,105.3-3.2,170.4-3.2
	c183.2,0,254.7,100.5,254.7,228.6c0,167.9-121.8,240.1-271.2,240.1c-25.1,0-33.7-1.3-51.5-1.3V1195c0,5.4-1.9,7.9-7.9,7.9H391.7
	c-5.4,0-7.9-1.9-7.9-7.9L383.7,485L383.7,485z"/>
</svg>
