<?xml version="1.0" encoding="utf-8"?>
<!-- Generator: Adobe Illustrator 23.0.1, SVG Export Plug-In . SVG Version: 6.00 Build 0)  -->
<svg version="1.1" id="Capa_1" xmlns="http://www.w3.org/2000/svg" xmlns:xlink="http://www.w3.org/1999/xlink" x="0px" y="0px"
	 viewBox="0 0 198 146.2" style="enable-background:new 0 0 198 146.2;" xml:space="preserve">
<path d="M0,67h48c-0.8,35-10.7,39-23.2,40.1l-4.8,0.6v38.5l5.5-0.3c16.3-0.9,34.3-3.9,46.3-18.7C82.4,114.2,87,93,87,60.4V0H0V67z"
	/>
<path d="M111,0v67h47.4c-0.8,35-10.4,39-22.9,40.1l-4.5,0.6v38.5l5.2-0.3c16.3-0.9,34.4-3.9,46.5-18.7c10.5-13,15.3-34.2,15.3-66.8
	V0H111z"/>
</svg>
