<?xml version="1.0" encoding="utf-8"?>
<!-- Generator: Adobe Illustrator 23.0.1, SVG Export Plug-In . SVG Version: 6.00 Build 0)  -->
<svg version="1.1" id="Layer_1" xmlns="http://www.w3.org/2000/svg" xmlns:xlink="http://www.w3.org/1999/xlink" x="0px" y="0px"
	 viewBox="0 0 1587.2 1800" style="enable-background:new 0 0 1587.2 1800;" xml:space="preserve">
<style type="text/css">
	.st0{fill:#FFFFFF;}
</style>
<g id="Logo_artwork">
</g>
<path class="st0" d="M1353.7,951c-53.8,0.3-100.5,13.2-139.6,32.5c-14.3-28.5-28.8-53.6-31.2-72.3c-2.8-21.8-6.1-34.8-2.7-60.7
	c3.4-26,18.5-62.7,18.2-65.5c-0.2-2.7-3.4-16-34.4-16.2c-31.1-0.2-57.6,6-60.7,14.2s-9.1,26.6-12.8,45.9
	c-5.5,28.2-62,128.6-94.1,181.1c-10.5-20.5-19.4-38.6-21.3-52.9c-2.8-21.8-6.1-34.8-2.7-60.7c3.4-26,18.5-62.7,18.2-65.5
	c-0.2-2.7-3.4-16-34.4-16.2c-31.1-0.2-57.6,6-60.7,14.2c-3.1,8.2-6.5,27.4-12.8,45.9c-6.4,18.5-81.5,186-101.2,229.4
	c-10,22.1-18.8,39.9-24.9,52v-0.1c0,0-0.4,0.8-1,2.2c-5.3,10.3-8.4,16-8.4,16s0,0.1,0.1,0.2c-4.2,7.6-8.7,14.6-10.9,14.6
	c-1.5,0-4.7-20.2,0.7-47.9c11.2-58.1,38-148.7,37.8-151.8c-0.1-1.6,5-17.4-17.6-25.7c-21.9-8-29.7,5.4-31.7,5.4
	c-1.9,0-3.4,4.7-3.4,4.7S746.4,872,675.4,872c-44.4,0-105.8,48.6-136.2,92.5c-19.1,10.4-60,32.7-103.4,56.6
	c-16.7,9.1-33.7,18.5-49.8,27.4c-1.1-1.2-2.2-2.4-3.3-3.6c-86.1-91.8-245.2-156.8-238.4-280.2c2.5-44.9,18.1-163.1,305.7-306.4
	c235.6-117.4,424.3-85.1,456.9-13.5c46.6,102.3-100.8,292.5-345.5,319.9C468.1,775.1,419,739,406.8,725.5
	c-12.8-14.2-14.8-14.8-19.6-12.1c-7.8,4.3-2.9,16.9,0,24.3c7.3,19,37.3,52.7,88.4,69.5c45,14.8,154.4,22.9,286.8-28.3
	c148.3-57.4,264-216.9,230.1-350.3C958,293,733.1,248.4,520.2,324c-126.7,45-263.8,115.6-362.4,207.8
	C40.6,641.5,21.9,736.9,29.6,776.8c27.4,141.7,222.7,234,300.9,302.4c-3.9,2.1-7.5,4.1-10.8,5.9c-39.2,19.4-188.1,97.3-225.3,179.6
	c-42.2,93.4,6.7,160.4,39.2,169.4c100.4,27.9,203.5-22.3,258.9-105c55.4-82.6,48.6-190.1,23.2-239.2c-0.3-0.6-0.7-1.2-1-1.8
	c10.1-6,20.5-12.1,30.7-18.1c20-11.7,39.6-22.6,56.6-31.9c-9.5,26.1-16.5,57.3-20.1,102.4c-4.3,53,17.5,121.5,45.9,148.5
	c12.5,11.9,27.6,12.1,37.1,12.1c33.1,0,48.2-27.5,64.8-60.1c20.4-39.9,38.5-86.4,38.5-86.4s-22.7,125.5,39.2,125.5
	c22.5,0,45.2-29.2,55.3-44.1c0,0.2,0,0.2,0,0.2s0.6-1,1.7-2.9c2.3-3.6,3.7-5.9,3.7-5.9s0.1-0.2,0.1-0.6
	c9.1-15.7,29.1-51.6,59.3-110.7c38.9-76.4,76.2-172.1,76.2-172.1s3.5,23.4,14.8,62.1c6.7,22.8,20.9,47.9,32.1,72.1
	c-9,12.5-14.6,19.7-14.6,19.7s0.1,0.1,0.2,0.4c-7.2,9.6-15.3,19.9-23.8,30c-30.7,36.6-67.3,78.4-72.2,90.4
	c-5.8,14.2-4.4,24.7,6.7,33.1c8.1,6.1,22.6,7.1,37.8,6.1c27.6-1.8,47-8.7,56.6-12.9c14.9-5.3,32.3-13.6,48.7-25.6
	c30.1-22.1,48.3-53.8,46.6-95.8c-1-23.1-8.3-46.1-17.7-67.7c2.7-3.9,5.5-7.9,8.2-11.9c47.5-69.5,84.3-145.8,84.3-145.8
	s3.5,23.4,14.8,62.1c5.8,19.6,17.1,40.9,27.3,61.9c-44.7,36.3-72.4,78.5-82,106.1c-17.8,51.2-3.9,74.4,22.3,79.6
	c11.8,2.4,28.6-3,41.1-8.3c15.6-5.2,34.4-13.8,52-26.7c30.1-22.1,59.1-53.2,57.4-95.2c-0.8-19.1-6-38.1-13-56.3
	c37.9-15.8,86.9-24.6,149.3-17.3c134,15.6,160.3,99.3,155.2,134.3c-5,35-33.1,54.2-42.5,60.1c-9.4,5.8-12.3,7.8-11.5,12.1
	c1.1,6.3,5.5,6,13.5,4.7c11-1.8,70.3-28.5,72.9-93.1C1571.6,1040.4,1493,950.2,1353.7,951z M321.2,1299.1
	c-44.4,48.4-106.4,66.7-133,51.3c-28.7-16.6-17.3-87.9,37.1-139.3c33.2-31.3,76-60.1,104.5-77.9c6.5-3.9,16-9.6,27.5-16.5
	c1.9-1.1,3-1.7,3-1.7v-0.1c2.2-1.3,4.5-2.7,6.9-4.1C386.9,1183.9,367.7,1248.3,321.2,1299.1z M644.4,1079.3
	c-15.5,37.7-47.8,134.1-67.5,128.9c-16.9-4.4-27.2-77.7-3.4-149.8c12-36.3,37.6-79.7,52.6-96.5c24.2-27.1,50.9-36,57.4-25
	C691.8,950.9,654.1,1055.7,644.4,1079.3z M911.5,1206.8c-6.6,3.4-12.6,5.6-15.3,3.9c-2.1-1.2,2.7-5.7,2.7-5.7s33.4-36,46.6-52.3
	c7.6-9.5,16.5-20.8,26.2-33.5c0.1,1.3,0.1,2.5,0.1,3.8C971.6,1166,930.1,1195.1,911.5,1206.8z M1117.3,1159.8
	c-4.9-3.5-4.1-14.7,12-49.7c6.3-13.7,20.7-36.9,45.7-59c2.9,9.1,4.7,17.8,4.6,25.9C1179.3,1131.2,1140.6,1151.5,1117.3,1159.8z"/>
</svg>
